<svg version="1.2" xmlns="http://www.w3.org/2000/svg" viewBox="0 0 48 48" width="48" height="48">
	<title>fullscreen</title>
	<style>
		.s0 { opacity: .4;fill: #c6bfb2 } 
		.s1 { opacity: .9;fill: #f8c44b } 
		.s2 { opacity: .3;fill: #e49540 } 
		.s3 { opacity: .2;fill: #1c898d } 
		.s4 { opacity: .2;fill: #7e3478 } 
		.s5 { opacity: .9;fill: #5b6ca8 } 
		.s6 { opacity: .9;fill: #1dca7d } 
		.s7 { opacity: .9;fill: #db4b30 } 
		.s8 { opacity: .9;fill: #3f18b6 } 
		.s9 { opacity: .5;fill: none;stroke: #000000;stroke-miterlimit:100 } 
	</style>
	<g id="Background">
		<path id="Path 0" class="s0" d="m5 11v6c4.7 0 6-0.3 6-0.8 0-0.4-1.2-0.6-2.5-0.4-2.4 0.2-2.5-0.1-2.5-4.8v-5c9.7 0 10 0.1 9.8 2.5-0.2 1.3 0 2.5 0.4 2.5 0.5 0 0.8-1.3 0.8-3v-3h-12zm26.1-3.3c0 2.7 0.1 2.7 1 0.5 0.8-1.8 1.6-2.2 5.1-2l4.3 0.3c0 8.4-0.3 9-2.5 9.6-2.3 0.6-2.2 0.7 0.7 0.8l3.3 0.1v-12c-11.9 0-12 0-11.9 2.8zm-8.1 11.7c0 0.3 0.2 0.5 0.5 0.5 0.3 0 0.5-0.2 0.5-0.5 0-0.3-0.2-0.5-0.5-0.5-0.3 0-0.5 0.2-0.5 0.5zm-4 4c0 0.3 0.2 0.5 0.5 0.5 0.3 0 0.5-0.2 0.5-0.5 0-0.3-0.2-0.5-0.5-0.5-0.3 0-0.5 0.2-0.5 0.5zm9 1c0 0.3 0.2 0.5 0.5 0.5 0.3 0 0.5-0.2 0.5-0.5 0-0.3-0.2-0.5-0.5-0.5-0.3 0-0.5 0.2-0.5 0.5zm-23 12.5v6h12c0-4.6-0.3-6-0.8-6-0.4 0-0.6 1.2-0.5 2.5 0.3 2.4 0 2.5-4.7 2.5h-5c0-9.7 0.2-10 2.7-10.4 2.5-0.3 2.5-0.3-0.5-0.5l-3.2-0.1zm32-5.2c0 0.4 1.2 0.6 2.5 0.5 2.4-0.3 2.5 0 2.5 4.7v5c-9.4 0-10-0.3-10.4-2.2-0.3-1.9-0.4-1.8-0.5 0.5-0.1 2.7 0 2.7 5.9 2.7h6v-12c-4.6 0-6 0.3-6 0.8z"/>
		<path id="Path 1" class="s1" d="m6 11c0 4.9 0.1 5 2.8 4.6 2.1-0.4 3.6 0.4 7 3.7 3.8 3.8 4.4 4 5.8 2.7 1.4-1.4 1.2-1.9-3-6.3-2.5-2.6-4.2-4.9-3.6-5.2 0.6-0.3 1-1.4 1-2.5 0-1.7-0.7-2-5-2h-5zm32 21.5c0 0.3 0.2 0.5 0.5 0.5 0.3 0 0.5-0.2 0.5-0.5 0-0.3-0.2-0.5-0.5-0.5-0.3 0-0.5 0.2-0.5 0.5zm3 0c0 0.3 0.2 0.5 0.5 0.5 0.3 0 0.5-0.2 0.5-0.5 0-0.3-0.2-0.5-0.5-0.5-0.3 0-0.5 0.2-0.5 0.5zm-9 9c0 0.3 0.2 0.5 0.5 0.5 0.3 0 0.5-0.2 0.5-0.5 0-0.3-0.2-0.5-0.5-0.5-0.3 0-0.5 0.2-0.5 0.5zm9 0c0 0.3 0.2 0.5 0.5 0.5 0.3 0 0.5-0.2 0.5-0.5 0-0.3-0.2-0.5-0.5-0.5-0.3 0-0.5 0.2-0.5 0.5z"/>
		<path id="Path 2" class="s2" d="m18.2 15.4c2.4 2.4 4.6 3.9 5.1 3.5 0.4-0.5-1-2.5-3-4.4-2.1-1.9-4.4-3.5-5.1-3.5-0.7 0 0.6 2 3 4.4zm-7.2 0.6c0 0.8 1.5 3.1 3.5 5 1.9 1.9 3.8 3.1 4.2 2.7 0.5-0.4-1.1-2.7-3.5-5-2.6-2.6-4.2-3.6-4.2-2.7zm17.6 8.8c-0.3 0.4 1.3 2.4 3.6 4.5 2.4 2 4.5 3.5 4.8 3.2 0.3-0.2-1-2.3-2.8-4.5-1.8-2.2-3.6-4-4.1-4-0.4 0-1.1 0.3-1.5 0.7zm-4.6 5c0 0.5 1.8 2.6 4 4.8 2.2 2.2 4 3.5 4 3 0-0.5-1.3-2.7-3-4.8-1.6-2-3.5-3.7-4-3.7-0.6 0-1 0.3-1 0.7z"/>
		<path id="Path 3" class="s3" d="m27.6 13.5c-2 1.9-3.7 4-3.6 4.5 0 0.6 0.3 1 0.7 0.9 0.5 0 2.4-1.8 4.3-4 1.9-2.2 3.2-4.2 2.9-4.5-0.3-0.3-2.2 1.1-4.3 3.1zm4.8 5.4c-2.1 2.3-3.5 4.4-3.1 4.8 0.4 0.5 2.4-0.8 4.3-2.7 2-1.9 3.4-4.1 3.2-4.8-0.3-0.8-1.9 0.2-4.4 2.7z"/>
		<path id="Path 4" class="s4" d="m14 27.3c-1.9 1.8-3.3 3.9-3.2 4.7 0.1 1 1.6 0.1 4.2-2.5 2.2-2.2 4-4.3 4-4.8 0-0.4-0.4-0.7-0.8-0.7-0.5 0-2.3 1.5-4.2 3.3zm4.5 5.7c-2.5 2.5-3.4 4-2.5 4 0.8 0 3-1.4 4.7-3.2 1.8-1.8 3.3-3.6 3.3-4.1 0-0.4-0.4-0.7-0.8-0.7-0.4 0-2.6 1.8-4.7 4z"/>
		<path id="Path 5" class="s5" d="m21.3 22.3c-3.2 3.6-3.2 3.8-1.6 5.7 1 1.2 1.9 2.1 2 2 0.2 0 2-1.6 4-3.5 3.5-3.2 3.6-3.6 1.5-3.5-1.5 0-2.3-0.6-2.5-2.2-0.2-2-0.5-1.8-3.5 1.5zm-15.2 14.7v5c9.3 0 10-0.3 10.1-1.9 0-1.1-0.5-2.3-1.2-2.8-0.9-0.6-1.1-0.2-0.6 1.4 0.6 2.1 0.4 2.3-3.3 2.3h-4c0-7.5 0.2-7.9 2-7.5 1.1 0.3 2 0 2-0.5 0-0.5-1.1-1-2.5-1-2.3 0-2.5 0.3-2.5 5z"/>
		<path id="Path 6" class="s6" d="m32.5 6.6c-0.4 0.4-0.8 1.7-0.7 2.8 0.1 1.2-1.4 3.8-3.3 5.9-1.9 2-3.5 4.6-3.5 5.7 0 1.2 0.7 2 1.7 2 1 0 3.5-1.7 5.6-3.8 2.5-2.4 4.7-3.7 6.5-3.7 2.5 0 2.7-0.3 2.7-4.5v-4.5c-6.3-0.5-8.5-0.3-9 0.1z"/>
		<path id="Path 7" class="s7" d="m25.3 26.5c-0.6 1.1 0.3 2.8 2.9 5.5 2.2 2.3 3.9 5.2 4 6.8 0.3 2.5 0.6 2.7 4.8 2.7h4.5c0-8.8-0.1-9-3-9-2.1 0-4.2-1.2-7-3.8-2.2-2-4.3-3.7-4.7-3.7-0.4 0-1.1 0.7-1.5 1.5z"/>
		<path id="Path 8" class="s8" d="m13.9 30.4c-2 2-4.1 3.3-5.2 3-1.4-0.3-1.7 0.3-1.7 3.6v4c7.3 0 7.9-0.3 7.5-1.7-0.4-1.2 0.8-3.1 3.2-5.5 3.4-3.3 3.6-3.9 2.3-5.3-0.8-0.9-1.8-1.6-2.1-1.5-0.3 0-2.1 1.5-4 3.4z"/>
		<path id="Stroke" class="s9" d="m5 11v6c4.7 0 6-0.3 6-0.8 0-0.4-1.2-0.6-2.5-0.4-2.4 0.2-2.5-0.1-2.5-4.8v-5c9.7 0 10 0.1 9.8 2.5-0.2 1.3 0 2.5 0.4 2.5 0.5 0 0.8-1.3 0.8-3v-3h-12zm26.1-3.3c0 2.7 0.1 2.7 1 0.5 0.8-1.8 1.6-2.2 5.1-2l4.3 0.3c0 8.4-0.3 9-2.5 9.6-2.3 0.6-2.2 0.7 0.7 0.8l3.3 0.1v-12c-11.9 0-12 0-11.9 2.8zm-8.1 11.7c0 0.3 0.2 0.5 0.5 0.5 0.3 0 0.5-0.2 0.5-0.5 0-0.3-0.2-0.5-0.5-0.5-0.3 0-0.5 0.2-0.5 0.5zm-4 4c0 0.3 0.2 0.5 0.5 0.5 0.3 0 0.5-0.2 0.5-0.5 0-0.3-0.2-0.5-0.5-0.5-0.3 0-0.5 0.2-0.5 0.5zm9 1c0 0.3 0.2 0.5 0.5 0.5 0.3 0 0.5-0.2 0.5-0.5 0-0.3-0.2-0.5-0.5-0.5-0.3 0-0.5 0.2-0.5 0.5zm-23 12.5v6h12c0-4.6-0.3-6-0.8-6-0.4 0-0.6 1.2-0.5 2.5 0.3 2.4 0 2.5-4.7 2.5h-5c0-9.7 0.2-10 2.7-10.4 2.5-0.3 2.5-0.3-0.5-0.5l-3.2-0.1zm32-5.2c0 0.4 1.2 0.6 2.5 0.5 2.4-0.3 2.5 0 2.5 4.7v5c-9.4 0-10-0.3-10.4-2.2-0.3-1.9-0.4-1.8-0.5 0.5-0.1 2.7 0 2.7 5.9 2.7h6v-12c-4.6 0-6 0.3-6 0.8zm-31-20.8c0 4.9 0.1 5 2.7 4.6 2.2-0.4 3.7 0.4 7.1 3.7 3.8 3.8 4.4 4 5.8 2.7 1.4-1.4 1.2-1.9-3-6.2-2.5-2.7-4.2-5-3.6-5.3 0.5-0.3 1-1.4 1-2.5 0-1.7-0.7-2-5-2h-5zm32 21.5c0 0.3 0.2 0.5 0.5 0.5 0.3 0 0.5-0.2 0.5-0.5 0-0.3-0.2-0.5-0.5-0.5-0.3 0-0.5 0.2-0.5 0.5zm3 0c0 0.3 0.2 0.5 0.5 0.5 0.3 0 0.5-0.2 0.5-0.5 0-0.3-0.2-0.5-0.5-0.5-0.3 0-0.5 0.2-0.5 0.5zm-9 9c0 0.3 0.2 0.5 0.5 0.5 0.3 0 0.5-0.2 0.5-0.5 0-0.3-0.2-0.5-0.5-0.5-0.3 0-0.5 0.2-0.5 0.5zm9 0c0 0.3 0.2 0.5 0.5 0.5 0.3 0 0.5-0.2 0.5-0.5 0-0.3-0.2-0.5-0.5-0.5-0.3 0-0.5 0.2-0.5 0.5zm-22.8-26.1c2.4 2.4 4.6 3.9 5 3.5 0.5-0.5-0.9-2.5-3-4.4-2-1.9-4.3-3.5-5-3.5-0.7 0 0.6 2 3 4.4zm-7.2 0.6c0 0.8 1.5 3.1 3.5 5 1.9 1.9 3.8 3.1 4.2 2.7 0.5-0.4-1.1-2.7-3.5-5-2.6-2.6-4.2-3.6-4.2-2.7zm17.6 8.8c-0.3 0.4 1.3 2.4 3.6 4.5 2.4 2 4.5 3.5 4.8 3.2 0.3-0.2-1-2.3-2.8-4.5-1.8-2.2-3.6-4-4.1-4-0.4 0-1.1 0.3-1.5 0.8zm-4.6 5c0 0.4 1.8 2.5 4 4.7 2.2 2.2 4 3.5 4 3 0-0.5-1.3-2.7-3-4.7-1.6-2.1-3.5-3.8-4-3.8-0.6 0-1 0.3-1 0.8zm3.6-16.3c-2 1.9-3.7 4-3.6 4.5 0 0.6 0.3 1 0.7 0.9 0.5 0 2.4-1.8 4.3-4 1.9-2.2 3.2-4.2 2.9-4.5-0.3-0.3-2.2 1.1-4.3 3.1zm4.8 5.4c-2.1 2.3-3.5 4.4-3.1 4.8 0.4 0.5 2.4-0.8 4.3-2.7 2-1.9 3.4-4.1 3.2-4.8-0.3-0.8-1.9 0.2-4.4 2.7zm-18.4 8.4c-1.9 1.8-3.3 3.9-3.2 4.7 0.1 1 1.6 0.1 4.2-2.5 2.2-2.2 4-4.3 4-4.7 0-0.5-0.4-0.8-0.8-0.8-0.5 0-2.3 1.5-4.2 3.3zm4.5 5.7c-2.5 2.5-3.4 4-2.5 4 0.8 0 3-1.4 4.7-3.2 1.8-1.8 3.3-3.6 3.3-4 0-0.5-0.4-0.8-0.8-0.8-0.4 0-2.6 1.8-4.7 4zm2.7-10.7c-3.1 3.6-3.1 3.8-1.5 5.7 1 1.2 1.9 2.1 2 2 0.2 0 2-1.6 4-3.5 3.5-3.2 3.6-3.6 1.5-3.5-1.5 0-2.3-0.6-2.5-2.2-0.2-2-0.5-1.8-3.5 1.5zm-15.2 14.7v5c9.3 0 10-0.3 10.1-1.9 0-1.1-0.5-2.3-1.2-2.8-0.9-0.6-1.1-0.2-0.6 1.5 0.6 2 0.4 2.2-3.3 2.2h-4c0-7.5 0.2-7.9 2-7.5 1.1 0.3 2 0 2-0.5 0-0.5-1.1-1-2.5-1-2.3 0-2.5 0.3-2.5 5zm26.5-30.4c-0.4 0.4-0.8 1.7-0.7 2.8 0.1 1.2-1.4 3.8-3.3 5.8-1.9 2.1-3.5 4.7-3.5 5.8 0 1.2 0.7 2 1.7 2 1 0 3.5-1.7 5.6-3.8 2.5-2.4 4.7-3.7 6.5-3.7 2.5 0 2.7-0.3 2.7-4.5v-4.5c-6.3-0.5-8.5-0.3-9 0.1zm-7.2 19.9c-0.6 1.1 0.3 2.8 2.9 5.5 2.2 2.3 3.9 5.2 4 6.8 0.3 2.5 0.6 2.7 4.8 2.7h4.5c0-8.8-0.1-9-3-9-2.1 0-4.2-1.2-7-3.8-2.2-2-4.3-3.7-4.7-3.7-0.4 0-1.1 0.7-1.5 1.5zm-11.4 3.9c-2 2-4.1 3.3-5.2 3-1.4-0.3-1.7 0.3-1.7 3.6v4c7.3 0 7.9-0.3 7.5-1.7-0.4-1.2 0.8-3.1 3.2-5.5 3.4-3.3 3.6-3.9 2.3-5.3-0.8-0.9-1.8-1.6-2.1-1.5-0.3 0-2.1 1.5-4 3.4z"/>
	</g>
</svg>
